<svg width="48" height="48" viewBox="0 0 48 48" fill="none" xmlns="http://www.w3.org/2000/svg">
<rect x="0.5" y="0.5" width="47" height="47" rx="14.5" fill="white"/>
<rect x="0.5" y="0.5" width="47" height="47" rx="14.5" stroke="#D3D3D3"/>
<path fill-rule="evenodd" clip-rule="evenodd" d="M13.5161 33.543C13.4238 33.4542 13.3144 33.3851 13.1874 33.3359C13.0607 33.287 12.9219 33.2622 12.771 33.2622C12.6911 33.2622 12.6084 33.2687 12.5223 33.282C12.4362 33.295 12.3523 33.3185 12.2696 33.3517C12.1871 33.3851 12.1085 33.4313 12.0341 33.4903C11.9598 33.5491 11.8948 33.6235 11.8399 33.7131C11.7512 33.5725 11.6309 33.4622 11.4795 33.3821C11.3278 33.3023 11.1543 33.2622 10.9592 33.2622C10.8936 33.2622 10.8259 33.2679 10.7556 33.2792C10.6855 33.2907 10.6159 33.3103 10.5468 33.3384C10.4776 33.3667 10.4116 33.4048 10.3486 33.4532C10.2855 33.5016 10.2285 33.5626 10.177 33.6364V33.328H9.62363V35.8539H10.1821V34.4538C10.1821 34.3466 10.1999 34.2513 10.2353 34.1677C10.2708 34.0841 10.3184 34.0144 10.3778 33.9582C10.4372 33.9016 10.5067 33.8592 10.5866 33.8303C10.6665 33.8014 10.7515 33.7867 10.8419 33.7867C11.0299 33.7867 11.1759 33.8436 11.2795 33.9582C11.3831 34.0724 11.435 34.2359 11.435 34.4485V35.8539H11.9937V34.4538C11.9937 34.3466 12.0115 34.2513 12.0469 34.1677C12.0824 34.0841 12.1298 34.0144 12.1892 33.9582C12.2486 33.9016 12.3183 33.8592 12.398 33.8303C12.4779 33.8014 12.5629 33.7867 12.6535 33.7867C12.8413 33.7867 12.9872 33.8436 13.0911 33.9582C13.1949 34.0724 13.2466 34.2359 13.2466 34.4485V35.8539H13.8053V34.2665C13.8053 34.1189 13.7799 33.9836 13.7295 33.8604C13.6791 33.7375 13.6081 33.6317 13.5161 33.543ZM39.7458 35.6833V35.7252H39.796C39.8062 35.7252 39.8143 35.7237 39.8197 35.7206C39.8252 35.7176 39.828 35.7122 39.828 35.7047C39.828 35.6971 39.8252 35.6917 39.8197 35.6885C39.8141 35.685 39.8062 35.6833 39.796 35.6833H39.7458ZM39.7972 35.6276C39.8299 35.6276 39.8547 35.6346 39.8716 35.6485C39.8885 35.6624 39.897 35.6809 39.897 35.7045C39.897 35.7227 39.891 35.7379 39.8789 35.75C39.8667 35.7618 39.8489 35.77 39.8259 35.7735L39.9 35.8557H39.8199L39.7537 35.776H39.746V35.8557H39.6791V35.6274L39.7972 35.6276ZM39.7816 35.9283C39.8084 35.9283 39.8336 35.9233 39.8571 35.9135C39.8804 35.9037 39.9011 35.8903 39.9184 35.8737C39.9357 35.8569 39.9494 35.8371 39.9596 35.8145C39.9695 35.792 39.9744 35.7678 39.9744 35.7415C39.9744 35.7159 39.9695 35.6917 39.9596 35.669C39.9496 35.6462 39.9359 35.6266 39.9184 35.61C39.9013 35.5934 39.8806 35.58 39.8571 35.5704C39.8336 35.5608 39.8084 35.5559 39.7816 35.5559C39.7541 35.5559 39.7287 35.5608 39.7049 35.5704C39.6812 35.5802 39.6605 35.5934 39.643 35.61C39.6257 35.6266 39.6116 35.6462 39.6017 35.669C39.5919 35.6917 39.5868 35.7159 39.5868 35.7415C39.5868 35.7676 39.5917 35.792 39.6017 35.8145C39.6116 35.8371 39.6255 35.8569 39.643 35.8737C39.6605 35.8903 39.6812 35.9037 39.7049 35.9135C39.7287 35.9233 39.7541 35.9283 39.7816 35.9283ZM39.7816 35.4843C39.8199 35.4843 39.8558 35.4911 39.8893 35.5048C39.9229 35.5181 39.9521 35.5368 39.9769 35.56C40.0019 35.5833 40.0216 35.6104 40.0359 35.6415C40.0504 35.6729 40.0575 35.7061 40.0575 35.7418C40.0575 35.777 40.0504 35.8104 40.0359 35.8416C40.0216 35.8727 40.0021 35.9004 39.9769 35.9238C39.9521 35.9475 39.9229 35.966 39.8893 35.9795C39.8558 35.9932 39.8199 36 39.7816 36C39.7425 36 39.706 35.9932 39.6723 35.9795C39.6383 35.966 39.609 35.9475 39.584 35.9238C39.5592 35.9004 39.5396 35.8729 39.5255 35.8416C39.5114 35.8104 39.5041 35.7768 39.5041 35.7418C39.5041 35.7061 39.5112 35.6731 39.5255 35.6415C39.5396 35.6104 39.5592 35.5831 39.584 35.56C39.609 35.5368 39.6383 35.5181 39.6723 35.5048C39.706 35.4911 39.7425 35.4843 39.7816 35.4843ZM28.7024 34.0072C28.7755 33.9361 28.8627 33.8805 28.9635 33.841C29.0644 33.8014 29.1733 33.7815 29.2906 33.7815C29.4199 33.7815 29.5395 33.8012 29.6504 33.841C29.7577 33.8791 29.8506 33.9326 29.9295 34.0004L30.2059 33.5592C30.1023 33.4796 29.9854 33.4144 29.8555 33.3638C29.6823 33.2962 29.4942 33.2624 29.2906 33.2624C29.0872 33.2624 28.899 33.2962 28.7257 33.3638C28.5524 33.4315 28.4033 33.5247 28.2777 33.6434C28.1523 33.7619 28.0538 33.9023 27.9824 34.064C27.9108 34.2257 27.8749 34.4013 27.8749 34.5911C27.8749 34.7811 27.9106 34.9568 27.9824 35.1187C28.0538 35.2804 28.1523 35.4204 28.2777 35.5393C28.4031 35.6579 28.5524 35.751 28.7257 35.8188C28.899 35.8865 29.0872 35.9203 29.2906 35.9203C29.4942 35.9203 29.6823 35.8865 29.8555 35.8188C29.9854 35.768 30.1023 35.703 30.2059 35.6233L29.9295 35.182C29.8506 35.2499 29.7577 35.3031 29.6504 35.3415C29.5395 35.381 29.4197 35.4009 29.2906 35.4009C29.1735 35.4009 29.0644 35.3812 28.9635 35.3415C28.8627 35.3019 28.7755 35.2466 28.7024 35.1755C28.6291 35.1043 28.5714 35.0191 28.5294 34.9199C28.4873 34.8203 28.4663 34.711 28.4663 34.5913C28.4663 34.4718 28.4873 34.3624 28.5294 34.2632C28.5714 34.1636 28.6291 34.0783 28.7024 34.0072ZM37.975 34.9129C37.9365 35.0115 37.8822 35.0967 37.8126 35.1687C37.7429 35.2408 37.6596 35.2974 37.5626 35.3386C37.4656 35.38 37.3573 35.4007 37.2385 35.4007C37.1137 35.4007 37.0024 35.3792 36.9045 35.3361C36.8065 35.2931 36.7236 35.2351 36.6556 35.1621C36.5879 35.0892 36.5358 35.0035 36.499 34.9051C36.4623 34.8065 36.4441 34.7022 36.4441 34.5913C36.4441 34.4806 36.4625 34.3761 36.499 34.2775C36.5358 34.1791 36.5879 34.0935 36.6556 34.0205C36.7236 33.9475 36.8065 33.8895 36.9045 33.8465C37.0024 33.8033 37.1139 33.7817 37.2385 33.7817C37.3573 33.7817 37.4656 33.8024 37.5626 33.8438C37.6598 33.885 37.7431 33.9418 37.8126 34.014C37.8822 34.0861 37.9363 34.1712 37.975 34.2697C38.0134 34.3681 38.0324 34.4751 38.0324 34.5913C38.0324 34.7075 38.0132 34.8145 37.975 34.9129ZM37.997 32.3015V33.6342C37.9051 33.5218 37.7916 33.4315 37.656 33.364C37.5203 33.2962 37.3581 33.2624 37.1695 33.2624C36.9842 33.2624 36.812 33.2952 36.6526 33.3612C36.4932 33.4272 36.3539 33.519 36.2347 33.6366C36.1155 33.7543 36.0221 33.8945 35.9544 34.0572C35.8862 34.2197 35.8525 34.3976 35.8525 34.5911C35.8525 34.7846 35.8862 34.9625 35.9544 35.125C36.0221 35.2878 36.1155 35.428 36.2347 35.5458C36.3537 35.6635 36.493 35.7553 36.6526 35.8213C36.812 35.8873 36.9842 35.9201 37.1695 35.9201C37.3579 35.9201 37.5203 35.8867 37.656 35.8198C37.7914 35.7532 37.9051 35.6635 37.997 35.5511V35.8543H38.5713V32.3015H37.997ZM35.3136 33.2624C35.1521 33.2624 35.0066 33.2904 34.8765 33.3466C34.7464 33.403 34.6374 33.5382 34.5496 33.6596V33.3284H34.0278V35.8543H34.5551V34.4647C34.5551 34.3575 34.5705 34.2615 34.6019 34.1773C34.6331 34.0929 34.6761 34.0217 34.731 33.9637C34.7859 33.9057 34.8521 33.8617 34.929 33.8317C35.0062 33.8018 35.0904 33.7869 35.1818 33.7869C35.2517 33.7869 35.3267 33.7949 35.4072 33.8108C35.4485 33.8188 35.4867 33.8287 35.5226 33.8404L35.6925 33.3132C35.6463 33.2991 35.5997 33.2872 35.5516 33.2794C35.4809 33.2679 35.4014 33.2624 35.3136 33.2624ZM27.3273 33.2624C27.1662 33.2624 27.0205 33.2904 26.8904 33.3466C26.7603 33.403 26.6513 33.5382 26.5633 33.6596V33.3284H26.0417V35.8543H26.5688V34.4647C26.5688 34.3575 26.5844 34.2615 26.6156 34.1773C26.6468 34.0929 26.6898 34.0217 26.7449 33.9637C26.8 33.9057 26.8658 33.8617 26.9429 33.8317C27.0197 33.8018 27.104 33.7869 27.1957 33.7869C27.2656 33.7869 27.3406 33.7949 27.4213 33.8108C27.4624 33.8188 27.5008 33.8287 27.5367 33.8404L27.7066 33.3132C27.6604 33.2991 27.6136 33.2872 27.5655 33.2794C27.495 33.2679 27.4153 33.2624 27.3273 33.2624ZM22.1408 35.3507C22.0483 35.3841 21.957 35.4007 21.8673 35.4007C21.8085 35.4007 21.7541 35.3919 21.7036 35.3743C21.6532 35.3568 21.6094 35.3292 21.5716 35.2913C21.534 35.2535 21.5043 35.2048 21.4823 35.1449C21.4601 35.0853 21.4492 35.0129 21.4492 34.9287V33.8291H22.372V33.3282H21.4492V32.5635H20.8721V33.3282H20.3471V33.8291H20.8721V34.9391C20.8721 35.2751 20.9548 35.5222 21.1206 35.6815C21.2866 35.8405 21.5188 35.9201 21.8175 35.9201C21.9844 35.9201 22.1339 35.8955 22.2668 35.8463C22.3546 35.8137 22.4361 35.7764 22.5123 35.7354L22.316 35.274C22.2604 35.3025 22.2023 35.3284 22.1408 35.3507ZM32.6668 34.9129C32.6284 35.0115 32.5743 35.0967 32.5047 35.1687C32.435 35.2408 32.3517 35.2974 32.2545 35.3386C32.1575 35.38 32.0494 35.4007 31.9301 35.4007C31.8056 35.4007 31.6943 35.3792 31.5962 35.3361C31.4981 35.2931 31.4152 35.2351 31.3475 35.1621C31.2796 35.0892 31.2274 35.0035 31.1909 34.9051C31.1541 34.8065 31.136 34.7022 31.136 34.5913C31.136 34.4806 31.1544 34.3761 31.1909 34.2775C31.2276 34.1791 31.2798 34.0935 31.3475 34.0205C31.4152 33.9475 31.4981 33.8895 31.5962 33.8465C31.6943 33.8033 31.8056 33.7817 31.9301 33.7817C32.0494 33.7817 32.1577 33.8024 32.2545 33.8438C32.3517 33.885 32.435 33.9418 32.5047 34.014C32.5743 34.0861 32.6284 34.1712 32.6668 34.2697C32.7053 34.3681 32.7245 34.4751 32.7245 34.5913C32.7245 34.7075 32.7053 34.8145 32.6668 34.9129ZM32.6886 33.6342C32.597 33.5218 32.4835 33.4315 32.3479 33.364C32.2124 33.2962 32.05 33.2624 31.8614 33.2624C31.6763 33.2624 31.5039 33.2952 31.3445 33.3612C31.1851 33.4272 31.0458 33.519 30.9268 33.6366C30.8076 33.7543 30.714 33.8945 30.6463 34.0572C30.5783 34.2197 30.5446 34.3976 30.5446 34.5911C30.5446 34.7846 30.5783 34.9625 30.6463 35.125C30.714 35.2878 30.8076 35.428 30.9268 35.5458C31.0458 35.6635 31.1851 35.7553 31.3445 35.8213C31.5039 35.8873 31.6763 35.9201 31.8614 35.9201C32.05 35.9201 32.2124 35.8867 32.3479 35.8198C32.4835 35.7532 32.597 35.6635 32.6886 35.5511V35.8543H33.2632V33.3284H32.6886V33.6342ZM23.4494 34.3751C23.4642 34.2839 23.4898 34.1996 23.5266 34.1234C23.5633 34.047 23.6105 33.9812 23.668 33.9256C23.7259 33.8703 23.7945 33.8276 23.8742 33.7977C23.9541 33.7678 24.0451 33.7528 24.1477 33.7528C24.3308 33.7528 24.4803 33.8074 24.5957 33.9164C24.7113 34.0254 24.7844 34.1783 24.8156 34.3751H23.4494ZM25.0561 33.6303C24.947 33.5134 24.816 33.4229 24.6632 33.3587C24.51 33.2945 24.3421 33.2624 24.159 33.2624C23.9646 33.2624 23.7872 33.2943 23.6268 33.3587C23.4663 33.4229 23.3285 33.5132 23.2131 33.6303C23.0975 33.7471 23.008 33.8873 22.9437 34.0508C22.8796 34.2144 22.8476 34.3946 22.8476 34.5913C22.8476 34.7918 22.8807 34.9736 22.9465 35.1371C23.0125 35.3007 23.1048 35.4403 23.224 35.5563C23.3432 35.6723 23.4853 35.762 23.6503 35.8252C23.815 35.8885 23.9966 35.9203 24.1945 35.9203C24.3942 35.9203 24.5844 35.8938 24.7649 35.8412C24.9455 35.7885 25.1162 35.696 25.2777 35.5643L24.992 35.1714C24.882 35.2556 24.7604 35.3212 24.6275 35.3677C24.4946 35.4144 24.3622 35.4376 24.2303 35.4376C24.1368 35.4376 24.047 35.4255 23.9609 35.4007C23.8748 35.3761 23.7968 35.338 23.7272 35.2861C23.6575 35.2343 23.5979 35.1679 23.5484 35.0869C23.499 35.0062 23.465 34.9086 23.4467 34.7942H25.3929C25.3965 34.7627 25.3993 34.7293 25.4012 34.694C25.4029 34.659 25.404 34.6237 25.404 34.5885C25.404 34.3917 25.3732 34.2119 25.3119 34.0492C25.2508 33.8867 25.1653 33.7473 25.0561 33.6303ZM19.6773 34.5874C19.5158 34.4671 19.2914 34.3868 19.0039 34.3464L18.7317 34.3066C18.671 34.2978 18.6141 34.2878 18.5612 34.2763C18.5082 34.2648 18.4622 34.2495 18.4238 34.2302C18.3855 34.2109 18.3545 34.1861 18.3317 34.1564C18.3088 34.1265 18.2975 34.0896 18.2975 34.0455C18.2975 33.9557 18.3411 33.8832 18.428 33.8279C18.515 33.7725 18.6374 33.745 18.7949 33.745C18.8774 33.745 18.9586 33.7518 19.0383 33.7662C19.1179 33.7803 19.1934 33.7977 19.2649 33.8186C19.3363 33.8397 19.4015 33.8631 19.4602 33.8887C19.5188 33.9141 19.5683 33.9385 19.6087 33.9611L19.8559 33.5315C19.7185 33.447 19.5583 33.3817 19.375 33.3349C19.1919 33.2884 18.9966 33.265 18.7893 33.265C18.6208 33.265 18.4697 33.2841 18.3357 33.3218C18.2022 33.3595 18.0881 33.4132 17.9937 33.4825C17.8992 33.5522 17.8268 33.6368 17.7764 33.7371C17.7258 33.8375 17.701 33.9498 17.701 34.0746C17.701 34.2786 17.7764 34.4433 17.9274 34.5692C18.0787 34.6948 18.3011 34.777 18.5941 34.8155L18.869 34.85C19.0267 34.8709 19.1421 34.9049 19.2156 34.9514C19.2889 34.998 19.3254 35.0572 19.3254 35.1295C19.3254 35.2242 19.275 35.2995 19.1741 35.3548C19.0733 35.4101 18.9242 35.4378 18.7261 35.4378C18.618 35.4378 18.5214 35.4308 18.4362 35.4167C18.3511 35.4025 18.2729 35.3839 18.2026 35.3601C18.1319 35.3363 18.0687 35.3093 18.0127 35.2785C17.9569 35.2478 17.905 35.2148 17.8576 35.1798L17.5909 35.5936C17.6862 35.662 17.7862 35.7176 17.8905 35.7598C17.9952 35.8018 18.0975 35.8348 18.1984 35.8584C18.2992 35.8824 18.3945 35.8979 18.4842 35.9057C18.574 35.9137 18.6528 35.9178 18.7205 35.9178C18.9092 35.9178 19.0784 35.8977 19.2278 35.8571C19.3773 35.8166 19.5027 35.76 19.6044 35.6868C19.7064 35.6139 19.7839 35.527 19.8382 35.4259C19.8925 35.3249 19.9192 35.2138 19.9192 35.0924C19.9192 34.8762 19.8386 34.7079 19.6773 34.5874ZM16.44 34.9131C16.4015 35.0117 16.3474 35.097 16.2778 35.1689C16.2081 35.241 16.1248 35.2976 16.0278 35.3388C15.9306 35.3802 15.8225 35.4009 15.7035 35.4009C15.5789 35.4009 15.4674 35.3794 15.3695 35.3363C15.2715 35.2933 15.1886 35.2353 15.1208 35.1623C15.0529 35.0894 15.0008 35.0037 14.9642 34.9053C14.9275 34.8067 14.9093 34.7024 14.9093 34.5915C14.9093 34.4808 14.9277 34.3763 14.9642 34.2777C15.001 34.1794 15.0531 34.0937 15.1208 34.0207C15.1886 33.9478 15.2717 33.8897 15.3695 33.8467C15.4676 33.8035 15.5789 33.7819 15.7035 33.7819C15.8225 33.7819 15.9306 33.8026 16.0278 33.844C16.1248 33.8852 16.2081 33.942 16.2778 34.0142C16.3474 34.0863 16.4015 34.1714 16.44 34.2699C16.4784 34.3683 16.4976 34.4753 16.4976 34.5915C16.4976 34.7077 16.4784 34.8147 16.44 34.9131ZM16.462 33.6344C16.3703 33.5221 16.2566 33.4317 16.121 33.3642C15.9853 33.2964 15.8231 33.2626 15.6345 33.2626C15.4494 33.2626 15.2772 33.2954 15.1176 33.3614C14.9582 33.4274 14.8189 33.5192 14.6999 33.6368C14.5807 33.7545 14.4873 33.8947 14.4194 34.0574C14.3517 34.2199 14.3177 34.3978 14.3177 34.5913C14.3177 34.7848 14.3517 34.9627 14.4194 35.1252C14.4873 35.288 14.5807 35.4282 14.6999 35.546C14.8189 35.6637 14.9582 35.7555 15.1176 35.8215C15.2772 35.8875 15.4494 35.9203 15.6345 35.9203C15.8231 35.9203 15.9855 35.8869 16.121 35.82C16.2566 35.7534 16.3703 35.6637 16.462 35.5513V35.8545H17.0365V33.3286H16.462V33.6344Z" fill="#141515"/>
<path fill-rule="evenodd" clip-rule="evenodd" d="M20.3118 21.5203C20.3118 18.4939 21.7856 15.7997 24.0803 14.0557C22.3881 12.7698 20.2507 12 17.9244 12C12.4434 12 8 16.2625 8 21.5201C8 26.7779 12.4432 31.0402 17.9244 31.0402C20.2507 31.0402 22.3881 30.2706 24.0803 28.9847C21.7856 27.2409 20.3118 24.5467 20.3118 21.5203Z" fill="#DE2C1D"/>
<path fill-rule="evenodd" clip-rule="evenodd" d="M20.3118 21.5203C20.3118 24.5467 21.7856 27.2409 24.0803 28.9847C26.375 27.2409 27.8483 24.547 27.8483 21.5206C27.8483 18.4942 26.3748 15.7997 24.0803 14.0557C21.7856 15.7997 20.3118 18.4939 20.3118 21.5203Z" fill="#ED6100"/>
<path fill-rule="evenodd" clip-rule="evenodd" d="M30.2361 12C27.9098 12 25.7723 12.7698 24.0803 14.0557C26.3748 15.7997 27.8483 18.4942 27.8483 21.5206C27.8483 24.547 26.375 27.2409 24.0803 28.9847C25.7723 30.2706 27.9098 31.0404 30.2361 31.0404C35.7171 31.0404 40.1603 26.7781 40.1603 21.5203C40.1603 16.2625 35.7171 12 30.2361 12ZM40.8579 27.0153V26.6111L40.7212 26.9599H40.5703L40.4336 26.6119V27.0153H40.2913V26.4326H40.4951L40.6462 26.8056L40.7957 26.4326H41V27.0153H40.8579ZM39.8377 27.0153V26.5582H39.6448V26.4326H40.1725V26.5582H39.9798V27.0153H39.8377Z" fill="#F79F06"/>
</svg>
